<?xml version="1.0" encoding="utf-8"?>
<!-- Generator: Adobe Illustrator 23.1.0, SVG Export Plug-In . SVG Version: 6.00 Build 0)  -->
<svg version="1.1" id="Layer_2" xmlns="http://www.w3.org/2000/svg" xmlns:xlink="http://www.w3.org/1999/xlink" x="0px" y="0px"
	 viewBox="0 0 600 79.45" style="enable-background:new 0 0 600 79.45;" xml:space="preserve">
<path d="M591.14,28.53c-6.51-7.48-16.01-11.42-24.97-12.65c-1.11-0.13-2.3-0.3-3.35-0.38l-3.1-0.19c-2.07-0.14-4.14-0.26-6.21-0.26
	c-4.15-0.13-8.3,0.03-12.43,0.33c-6.9,0.46-13.69,1.49-20.38,2.82c-3.31-0.62-6.67-1.9-9.89-3.9c-2.81-1.73-7.26-5.81-9.5-7.94
	c-0.37-0.35-0.99,0.02-0.83,0.51c1.33,4.11,3.08,8.2,5.57,12.11c0.48,0.75,1.04,1.49,1.58,2.22c-4.85,1.25-9.63,2.58-14.32,3.94
	c-3.79,1.05-7.56,2.17-11.31,3.02c-1.88,0.48-3.73,0.83-5.6,1.24l-5.94,1.27c-7.86,1.75-15.54,3.74-23.25,5.57
	c-9.25,2.12-18.46,4.26-27.7,6.24c1.53-3.53,2.47-7.28,2.74-11.07c0.3-4.78-0.26-9.67-2.37-14.26c-1.14-2.26-2.48-4.51-4.58-6.29
	c-6.79-6.01-11.8-8.38-18.22-8.38c-5.16,0-9.52,4.2-9.52,11.8c0,5.48,4.26,9.93,9.52,9.93c5.26,0,9.52-4.44,9.52-9.93
	c2.59,0.78,4.53,3.01,5.61,6.06c1.08,3.04,1.19,6.63,0.64,10.02c-0.58,3.41-1.91,6.68-3.78,9.46c-1.26,1.86-2.77,3.49-4.46,4.89
	c-0.83,0.37-2.09,0.93-2.92,1.29c-7.98,1.41-15.97,2.73-23.96,3.77c-3.87,0.56-7.74,0.95-11.6,1.39c-1.93,0.22-3.86,0.35-5.8,0.52
	l-2.9,0.25c-0.98,0.09-1.75,0.06-2.63,0.1c-6.84,0.2-13.6-1.23-19.69-4.15c-6.07-2.9-11.55-7.26-15.5-12.57
	c-2.01-2.62-3.56-5.5-4.64-8.34c-1.03-2.85-1.37-5.68-1.07-7.99c0.4-2.27,5.03-2.67,5.03-0.17c0,9.88,2.8,17.89,13.51,17.89
	c10.7,0,13.51-8.01,13.51-17.89S341.77,0,325.19,0c-3.74,0-9.35,0.55-14.16,2.96c-4.77,2.45-8.94,7.52-10.24,13.01h-1.56
	c-1.3-5.49-5.48-10.56-10.24-13.01C284.16,0.55,278.56,0,274.81,0c-16.58,0-20.74,8.96-20.74,18.83s2.8,17.89,13.51,17.89
	c10.7,0,13.51-8.01,13.51-17.89c0-2.49,4.63-2.1,5.03,0.17c0.3,2.31-0.04,5.13-1.07,7.99c-1.08,2.84-2.63,5.73-4.64,8.34
	c-3.96,5.31-9.43,9.67-15.5,12.57c-6.08,2.93-12.85,4.35-19.69,4.15c-0.88-0.04-1.65-0.01-2.63-0.1l-2.9-0.25
	c-1.93-0.18-3.86-0.31-5.8-0.52c-3.87-0.44-7.74-0.83-11.6-1.39c-7.99-1.03-15.98-2.36-23.96-3.77c-0.83-0.37-2.09-0.93-2.92-1.29
	c-1.69-1.4-3.21-3.02-4.46-4.89c-1.88-2.78-3.21-6.04-3.78-9.46c-0.55-3.39-0.44-6.99,0.64-10.02c1.09-3.05,3.02-5.28,5.61-6.06
	c0,5.48,4.26,9.93,9.52,9.93c5.26,0,9.52-4.44,9.52-9.93c0-7.6-4.35-11.8-9.52-11.8c-6.42,0-11.43,2.37-18.22,8.38
	c-2.1,1.78-3.44,4.03-4.58,6.29c-2.11,4.59-2.67,9.49-2.37,14.26c0.27,3.79,1.22,7.53,2.74,11.07c-9.23-1.97-18.45-4.11-27.7-6.24
	c-7.71-1.83-15.39-3.82-23.25-5.57l-5.94-1.27c-1.87-0.42-3.72-0.76-5.6-1.24c-3.74-0.85-7.51-1.97-11.31-3.02
	c-4.69-1.36-9.47-2.69-14.32-3.94c0.54-0.74,1.1-1.47,1.58-2.22c2.49-3.9,4.24-7.99,5.57-12.11c0.16-0.49-0.45-0.87-0.83-0.51
	c-2.25,2.13-6.69,6.21-9.5,7.94c-3.22,1.99-6.58,3.28-9.89,3.9c-6.69-1.34-13.48-2.37-20.38-2.82c-4.13-0.29-8.29-0.46-12.43-0.33
	c-2.08,0-4.15,0.12-6.21,0.26l-3.1,0.19c-1.05,0.08-2.24,0.25-3.35,0.38c-8.96,1.22-18.46,5.17-24.97,12.65
	C2.37,35.88-1,45.88,0.26,55.64c0.61,4.86,2.26,9.8,5.53,13.96c1.66,2.04,3.66,3.89,5.99,5.26c2.33,1.38,6.66,2.62,13.79,2.62
	s21.73-1.74,21.73-17c0-9.39-2.83-18.17-14.02-18.17c-11.19,0-14.02,8.78-14.02,18.17c0.16,2.87-2.68,3.96-3.9,2.16
	c-1.39-2.27-2.23-5.16-2.33-8.17c-0.22-6.06,2.06-12.28,6.14-16.72c4.05-4.51,9.97-7.33,16.62-8.3c0.86-0.1,1.63-0.24,2.55-0.31
	l2.83-0.2c1.89-0.14,3.77-0.28,5.66-0.29c3.78-0.12,7.55-0.1,11.34,0.04c15.16,0.53,30.11,3.95,45.5,7.87
	c0.56,0.14,1.12,0.27,1.67,0.41c4.16,4.77,7.6,10.21,8.79,16.02c0.65,3.18,0.56,6.39-0.46,9.33c-1,2.94-2.97,5.61-5.68,7.66
	c0-5.22-3.52-9.45-9.69-9.45c-6.17,0-9.69,2.68-9.69,9.45c0,6.77,4.34,9.45,9.69,9.45c7.24,0,9.41-1.99,12.95-4.45
	c3.54-2.47,7.17-5.51,9.23-9.69c2.09-4.16,2.8-8.93,2.47-13.41c-0.29-4.04-1.36-7.89-2.82-11.51c0.43,0.09,0.87,0.17,1.3,0.26
	l5.7,1.15c7.63,1.64,15.34,3.44,23.04,5.32l23.16,5.69c7.77,1.8,15.53,3.61,23.35,5.35c3.48,0.75,6.96,1.48,10.46,2.18
	c-0.68,1.3-1.33,2.61-1.96,3.93c-1.61,3.43-3.08,6.93-4.21,10.47c-0.37,1.17,1.02,2.09,1.95,1.3c2.75-2.32,5.67-4.35,8.65-6.26
	c3.9-2.47,7.97-4.72,11.95-6.46c2.9,0.47,5.82,0.91,8.73,1.34c2,0.3,4.02,0.51,6.02,0.77l3.02,0.37c0.99,0.13,2.21,0.17,3.3,0.26
	c4.49,0.3,9.06,0.07,13.52-0.83c4.46-0.86,8.86-2.18,12.98-4.12c8.22-3.9,15.59-9.62,21.05-17.09c2.68-3.76,5.03-7.9,6.43-12.59
	h2.83c1.4,4.7,3.75,8.83,6.43,12.59c5.46,7.48,12.83,13.2,21.05,17.09c4.12,1.95,8.52,3.26,12.98,4.12
	c4.46,0.9,9.03,1.13,13.52,0.83c1.09-0.08,2.31-0.13,3.3-0.26l3.02-0.37c2.01-0.26,4.03-0.47,6.02-0.77
	c2.92-0.44,5.83-0.87,8.73-1.34c3.98,1.74,8.05,3.99,11.95,6.46c2.97,1.91,5.89,3.94,8.65,6.26c0.94,0.79,2.32-0.14,1.95-1.3
	c-1.13-3.55-2.6-7.05-4.21-10.47c-0.63-1.32-1.29-2.63-1.96-3.93c3.49-0.7,6.98-1.43,10.46-2.18c7.81-1.73,15.58-3.55,23.35-5.35
	l23.16-5.69c7.7-1.88,15.42-3.68,23.04-5.32l5.7-1.15c0.43-0.09,0.87-0.18,1.3-0.26c-1.46,3.61-2.53,7.46-2.82,11.51
	c-0.33,4.49,0.38,9.25,2.47,13.41c2.06,4.18,5.69,7.23,9.23,9.69c3.54,2.47,5.71,4.45,12.95,4.45c5.35,0,9.69-2.68,9.69-9.45
	c0-6.77-3.52-9.45-9.69-9.45c-6.17,0-9.69,4.23-9.69,9.45c-2.71-2.06-4.68-4.72-5.68-7.66c-1.02-2.94-1.1-6.15-0.46-9.33
	c1.19-5.82,4.62-11.26,8.79-16.02c0.56-0.14,1.12-0.27,1.67-0.41c15.39-3.92,30.34-7.34,45.5-7.87c3.78-0.14,7.56-0.16,11.34-0.04
	c1.89,0.01,3.78,0.14,5.66,0.29l2.83,0.2c0.92,0.08,1.7,0.22,2.55,0.31c6.65,0.97,12.57,3.79,16.62,8.3
	c4.08,4.44,6.36,10.66,6.14,16.72c-0.1,3.01-0.94,5.9-2.33,8.17c-1.22,1.8-4.06,0.71-3.9-2.16c0-9.39-2.83-18.17-14.02-18.17
	c-11.19,0-14.02,8.78-14.02,18.17c0,15.25,14.59,17,21.73,17c7.14,0,11.46-1.24,13.79-2.62c2.33-1.38,4.33-3.22,5.99-5.26
	c3.28-4.16,4.92-9.11,5.53-13.96C601,45.88,597.63,35.88,591.14,28.53z"/>
</svg>
